<svg width="1432" height="317" xmlns="http://www.w3.org/2000/svg" fill="none">
 <defs>
  <linearGradient y2="1.02632" x2="0.85263" y1="0.03158" x1="0.05263" id="paint0_linear_821_2130">
   <stop stop-color="#D81441"/>
   <stop stop-color="#EB7B15" offset="1"/>
  </linearGradient>
 </defs>
 <g>
  <title>Layer 1</title>
  <rect id="svg_1" fill="white" height="195.552" width="235.904" y="57.39013" x="17.74633"/>
  <path id="svg_2" fill="#414B5C" d="m479.66833,172.99713l-40.831,-9.645c-16.29,-3.859 -27.436,-9.753 -33.437,-17.683c-5.787,-7.931 -8.681,-19.291 -8.681,-34.08c0,-23.363 6.109,-40.511 18.326,-51.442c12.432,-11.145 31.615,-16.718 57.55,-16.718c10.717,0 20.255,0.428 28.614,1.286c8.36,0.857 16.076,2.357 23.149,4.501l0,44.69c-16.29,-2.787 -27.543,-4.394 -33.758,-4.823c-6.002,-0.429 -12.325,-0.643 -18.969,-0.643c-9.003,0 -15.54,1.5 -19.612,4.501c-4.073,3.001 -6.109,8.038 -6.109,15.111c0,3.429 0.643,6.109 1.929,8.038c1.286,1.714 3.751,3.001 7.395,3.858l38.581,9.002c11.145,2.572 19.183,5.144 24.113,7.716c4.93,2.358 8.895,5.466 11.896,9.324c3.429,4.073 5.894,9.324 7.394,15.754c1.715,6.43 2.573,14.254 2.573,23.47c0,23.363 -6.216,40.296 -18.648,50.799c-12.432,10.288 -31.722,15.432 -57.872,15.432c-13.289,0 -25.935,-0.857 -37.938,-2.572c-12.003,-1.5 -21.326,-3.429 -27.971,-5.787l0,-47.262c8.574,2.786 18.755,5.037 30.543,6.752c11.789,1.5 23.578,2.25 35.366,2.25c9.431,0 15.969,-1.179 19.612,-3.536c3.644,-2.358 5.466,-7.074 5.466,-14.147c0,-4.501 -0.643,-7.716 -1.929,-9.645c-1.072,-2.143 -3.322,-3.644 -6.752,-4.501zm130.616,18.647l0,56.586l-49.834,0l0,-201.586l73.626,0c31.079,0 53.156,5.465 66.23,16.397c13.075,10.717 19.613,28.828 19.613,54.335c0,25.292 -6.967,44.047 -20.899,56.264c-13.717,12.003 -35.044,18.004 -63.98,18.004l-24.756,0zm59.158,-74.268c0,-9.431 -2.572,-16.076 -7.717,-19.934c-5.144,-3.858 -14.36,-5.787 -27.649,-5.787l-23.792,0l0,56.264l23.792,0c13.503,0 22.72,-2.25 27.649,-6.752c5.145,-4.501 7.717,-12.431 7.717,-23.791zm93.423,130.854l-52.406,0l74.59,-201.586l51.763,0l72.666,201.586l-52.09,0l-10.61,-33.758l-73.303,0l-10.61,33.758zm46.94,-152.074c-1.714,6.002 -3.643,12.432 -5.787,19.291c-1.929,6.644 -5.251,17.576 -9.967,32.794l-8.359,26.685l48.548,0l-8.359,-26.685c-2.787,-8.145 -5.573,-16.719 -8.359,-25.721c-2.787,-9.217 -5.359,-18.005 -7.717,-26.364zm185.263,152.074l-70.41,0l0,-201.586l70.41,0c20.58,0 36.87,1.715 48.87,5.144c12.22,3.429 21.97,8.895 29.26,16.397c7.29,7.502 12.54,17.683 15.75,30.543c3.43,12.646 5.15,28.829 5.15,48.548c0,34.937 -7.83,60.551 -23.47,76.841c-15.65,16.075 -40.84,24.113 -75.56,24.113zm39.55,-143.715c-3,-4.501 -7.4,-7.716 -13.18,-9.645c-5.79,-2.143 -14.58,-3.215 -26.37,-3.215l-20.57,0l0,109.956l20.57,0c11.58,0 20.26,-0.964 26.04,-2.893c5.79,-1.929 10.29,-5.037 13.51,-9.324c2.78,-4.073 4.82,-9.431 6.11,-16.076c1.28,-6.858 1.93,-15.539 1.93,-26.042c0,-10.717 -0.65,-19.398 -1.93,-26.042c-1.29,-6.859 -3.33,-12.432 -6.11,-16.719zm222.34,97.096l0,46.619l-138.89,0l0,-201.586l136,0l0,45.011l-86.17,0l0,33.437l74.27,0l0,41.796l-74.27,0l0,34.723l89.06,0z"/>
  <path id="svg_3" fill="#414B5C" d="m1355.76833,53.07413l0,5.661l-15.29,0l0,40.433l-6.25,0l0,-40.433l-15.29,0l0,-5.661l36.83,0zm49.86,0l0,46.094l-5.88,0l0,-36.316l-13.16,27.127l-5.36,0l-13.16,-27.201l0,36.39l-5.88,0l0,-46.094l7.86,0l13.97,29.333l14.04,-29.333l7.57,0z"/>
  <path id="svg_4" fill="url(#paint0_linear_821_2130)" d="m73.61833,305.71113l85.36,0c81.436,0 147.44,-66.014 147.44,-147.44c0,-81.427 -66.013,-147.44 -147.44,-147.44l-85.36,0c-34.286,0 -62.08,27.794 -62.08,62.08l0,170.72c0,34.285 27.794,62.08 62.08,62.08zm10.371,-61.234c-14.52,-0.072 -26.175,-6.308 -34.628,-18.095c-8.063,-11.246 -9.542,-23.923 -6.508,-37.065c4.224,-18.328 20.4,-31.514 39.169,-32.4c3.16,-0.148 6.328,-0.131 9.496,-0.113c1.44,0.008 2.88,0.017 4.319,0.009c0.476,-0.003 0.953,-0.002 1.43,-0.001c0.238,0.001 0.476,0.001 0.714,0.001c0.008,-0.052 0.02,-0.104 0.028,-0.156c-0.034,-0.014 -0.067,-0.029 -0.101,-0.044c-0.099,-0.044 -0.199,-0.088 -0.304,-0.121c-8.905,-2.941 -16.099,-8.236 -21.558,-15.843c-7.298,-10.172 -9.202,-21.63 -7.351,-33.726c3.187,-20.861 21.202,-36.063 42.296,-36.055c9.408,0.003 18.816,0.002 28.224,0.001c22.998,-0.002 45.995,-0.003 68.995,0.039c2.817,0.004 5.683,0.297 8.444,0.858c19.218,3.896 32.985,19.827 34.207,39.449c0.522,8.301 -0.505,16.361 -4.444,23.791c-7.559,14.252 -19.422,22.188 -35.542,23.462c-2.993,0.238 -6.01,0.201 -9.026,0.165c-1.362,-0.017 -2.724,-0.033 -4.084,-0.024c-0.72,0.005 -1.438,0.003 -2.218,0.002c-0.413,-0.001 -0.844,-0.002 -1.301,-0.002c0.109,0.068 0.186,0.121 0.246,0.161c0.096,0.065 0.144,0.098 0.199,0.115c10.665,3.479 18.745,10.14 24.268,19.859c5.282,9.298 6.368,19.354 4.861,29.759c-2.949,20.344 -21.153,36.019 -41.71,36.023c-8.79,0.002 -17.581,0.011 -26.372,0.02c-23.915,0.026 -47.832,0.052 -71.749,-0.069z" clip-rule="evenodd" fill-rule="evenodd"/>
 </g>
</svg>